#!OML:ASF H:\Not Pregnant\Project 1\Capture day 1\Session 1\non-pregnant.ASF
:FULLY-SPECIFIED
:DEGREES
1239
root -6.14006 16.1131 34.1355 171.488 -75.6175 -160.263
lowerback -11.6379 1.33441 3.36475
upperback -4.09447 1.17015 0.854599
thorax 2.29518 0.488728 -0.853037
lowerneck 36.863 -12.7178 -28.1739
upperneck -23.4828 -27.009 49.7257
head 0.312661 -19.3613 28.2518
rclavicle 2.93207e-015 -3.57812e-015
rhumerus -33.6744 17.4873 -98.159
rradius 26.645
rwrist 19.2004
rhand -9.17835 2.18203
rfingers 7.12502
rthumb 16.7747 -27.1133
lclavicle 2.93207e-015 -3.57812e-015
lhumerus -41.2741 -15.8724 98.0046
lradius 32.6035
lwrist 37.022
lhand -15.2824 -13.9679
lfingers 7.12502
lthumb 10.8924 15.7296
rfemur -11.3872 2.40565 25.0105
rtibia 17.6621
rfoot -17.8513 7.77451
rtoes -15.9237
lfemur -11.7912 -1.92105 -12.0326
ltibia 19.5976
lfoot -16.263 6.88275
ltoes -29.4499
1240
root -6.13645 16.111 34.124 171.187 -75.6971 -159.97
lowerback -11.635 1.34192 3.42326
upperback -4.08474 1.17244 0.88915
thorax 2.30416 0.490047 -0.849653
lowerneck 36.3155 -12.5082 -28.371
upperneck -22.8855 -26.7735 49.5721
head 0.450711 -19.1653 28.1229
rclavicle -9.74045e-015 -1.66979e-014
rhumerus -33.6781 17.4793 -98.129
rradius 26.6419
rwrist 19.1651
rhand -9.13647 2.19201
rfingers 7.12502
rthumb 16.8151 -27.0999
lclavicle -9.74045e-015 -1.66979e-014
lhumerus -41.255 -15.8466 98.0199
lradius 32.6012
lwrist 36.9699
lhand -15.3312 -14.0299
lfingers 7.12502
lthumb 10.8453 15.67
rfemur -11.3821 2.22147 25.1162
rtibia 17.6854
rfoot -17.8964 7.89345
rtoes -15.7912
lfemur -11.8779 -1.99905 -11.9277
ltibia 19.7524
lfoot -16.2921 6.91525
ltoes -29.5811
1241
root -6.13254 16.1085 34.1123 170.835 -75.7759 -159.625
lowerback -11.628 1.34344 3.49108
upperback -4.07852 1.1655 0.931207
thorax 2.30691 0.486523 -0.84506
lowerneck 35.7447 -12.2754 -28.5996
upperneck -22.2613 -26.525 49.4245
head 0.60247 -18.9617 28.0156
rclavicle 6.16232e-015 -7.95139e-015
rhumerus -33.6829 17.4689 -98.0951
rradius 26.6317
rwrist 19.1601
rhand -9.05395 2.21917
rfingers 7.12502
rthumb 16.8945 -27.066
lclavicle 6.16232e-015 -7.95139e-015
lhumerus -41.243 -15.8126 98.0385
lradius 32.615
lwrist 36.9631
lhand -15.4103 -14.0612
lfingers 7.12502
lthumb 10.769 15.6427
rfemur -11.3775 2.03205 25.2366
rtibia 17.7054
rfoot -17.9399 8.01514
rtoes -15.659
lfemur -11.9789 -2.07179 -11.8076
ltibia 19.929
lfoot -16.3313 6.93997
ltoes -29.6918
1242
root -6.12851 16.1059 34.1006 170.491 -75.8553 -159.285
lowerback -11.6205 1.34485 3.55738
upperback -4.07611 1.15859 0.971127
thorax 2.30538 0.482839 -0.841864
lowerneck 35.1617 -12.0364 -28.8306
upperneck -21.6249 -26.2697 49.2827
head 0.758519 -18.7552 27.921
rclavicle -3.11533e-014 -1.45113e-014
rhumerus -33.6902 17.4357 -98.0552
rradius 26.6186
rwrist 19.189
rhand -8.94638 2.26849
rfingers 7.12502
rthumb 16.998 -27.0078
lclavicle -3.11533e-014 -1.45113e-014
lhumerus -41.2299 -15.7777 98.0635
lradius 32.641
lwrist 37.0337
lhand -15.5121 -14.0533
lfingers 7.12502
lthumb 10.6708 15.6558
rfemur -11.376 1.84216 25.354
rtibia 17.723
rfoot -17.9823 8.13629
rtoes -15.5367
lfemur -12.0946 -2.1404 -11.69
ltibia 20.1246
lfoot -16.378 6.96074
ltoes -29.7943
1243
root -6.12427 16.1033 34.0888 170.109 -75.9341 -158.903
lowerback -11.6108 1.35612 3.63825
upperback -4.07687 1.16344 1.00422
thorax 2.30027 0.484781 -0.852404
lowerneck 34.5714 -11.807 -29.0297
upperneck -20.9823 -26.0086 49.1412
head 0.907942 -18.5465 27.8238
rclavicle 1.06039e-014 2.98177e-015
rhumerus -33.7138 17.4303 -98.0392
rradius 26.6208
rwrist 19.1734
rhand -8.84155 2.31581
rfingers 7.12502
rthumb 17.099 -26.9517
lclavicle 1.06039e-014 2.98177e-015
lhumerus -41.2129 -15.7644 98.085
lradius 32.6806
lwrist 37.2096
lhand -15.5889 -14.0117
lfingers 7.12502
lthumb 10.5967 15.7012
rfemur -11.3757 1.66837 25.4814
rtibia 17.7371
rfoot -18.018 8.24291
rtoes -15.4103
lfemur -12.2247 -2.19758 -11.5611
ltibia 20.3387
lfoot -16.4359 6.96813
ltoes -29.8832
1244
root -6.11995 16.1006 34.0768 169.673 -76.0121 -158.464
lowerback -11.5972 1.37967 3.73856
upperback -4.0816 1.18285 1.02935
thorax 2.29 0.493677 -0.880265
lowerneck 33.9785 -11.5897 -29.2001
upperneck -20.3343 -25.7519 49.007
head 1.05784 -18.3426 27.726
rclavicle 2.24378e-014 1.55052e-014
rhumerus -33.7456 17.4027 -98.0294
rradius 26.6288
rwrist 19.1556
rhand -8.75481 2.37116
rfingers 7.12502
rthumb 17.1824 -26.8891
lclavicle 2.24378e-014 1.55052e-014
lhumerus -41.1951 -15.783 98.1075
lradius 32.7185
lwrist 37.3882
lhand -15.6519 -13.9398
lfingers 7.12502
lthumb 10.5359 15.7761
rfemur -11.3748 1.49952 25.6233
rtibia 17.7474
rfoot -18.052 8.33977
rtoes -15.2979
lfemur -12.3668 -2.24801 -11.4175
ltibia 20.5692
lfoot -16.5003 6.96959
ltoes -29.9737
1245
root -6.11556 16.0978 34.0645 169.168 -76.0871 -157.955
lowerback -11.5841 1.42168 3.86295
upperback -4.08525 1.22463 1.04087
thorax 2.28286 0.51366 -0.932703
lowerneck 33.3846 -11.3898 -29.3238
upperneck -19.6937 -25.4971 48.8848
head 1.20099 -18.1439 27.6293
rclavicle 2.06363e-014 7.55382e-015
rhumerus -33.781 17.3679 -98.0368
rradius 26.6484
rwrist 19.0973
rhand -8.70534 2.38932
rfingers 7.12502
rthumb 17.2301 -26.8668
lclavicle 2.06363e-014 7.55382e-015
lhumerus -41.1567 -15.8232 98.0995
lradius 32.7212
lwrist 37.5243
lhand -15.5836 -13.9076
lfingers 7.12502
lthumb 10.6018 15.8049
rfemur -11.3718 1.33104 25.7834
rtibia 17.7534
rfoot -18.0815 8.43946
rtoes -15.1721
lfemur -12.5199 -2.28165 -11.2558
ltibia 20.8169
lfoot -16.5727 6.961
ltoes -30.094
1246
root -6.11111 16.0947 34.052 168.623 -76.1624 -157.405
lowerback -11.5694 1.46967 4.00264
upperback -4.08896 1.27304 1.04544
thorax 2.27572 0.536865 -1.00006
lowerneck 32.7818 -11.1942 -29.4271
upperneck -19.0467 -25.2394 48.7689
head 1.34411 -17.9449 27.5362
rclavicle 3.00724e-014 2.18663e-015
rhumerus -33.8073 17.299 -98.0355
rradius 26.6591
rwrist 19.0644
rhand -8.66343 2.41312
rfingers 7.12502
rthumb 17.2704 -26.8395
lclavicle 3.00724e-014 2.18663e-015
lhumerus -41.1029 -15.8549 98.0603
lradius 32.6811
lwrist 37.5476
lhand -15.4108 -13.9337
lfingers 7.12502
lthumb 10.7685 15.7703
rfemur -11.3661 1.15431 25.9526
rtibia 17.7547
rfoot -18.1083 8.54726
rtoes -15.0347
lfemur -12.6825 -2.30976 -11.0848
ltibia 21.0809
lfoot -16.6479 6.95156
ltoes -30.268
1247
root -6.10657 16.0914 34.0392 168.058 -76.2354 -156.837
lowerback -11.553 1.51676 4.14326
upperback -4.09344 1.32026 1.05112
thorax 2.26695 0.559401 -1.06699
lowerneck 32.1643 -10.9941 -29.5293
upperneck -18.3881 -24.975 48.6566
head 1.4911 -17.7419 27.4509
rclavicle -1.86112e-014 2.38542e-015
rhumerus -33.8312 17.2257 -98.0289
rradius 26.665
rwrist 19.0499
rhand -8.62695 2.44005
rfingers 7.12502
rthumb 17.3055 -26.8095
lclavicle -1.86112e-014 2.38542e-015
lhumerus -41.0503 -15.8851 98.019
lradius 32.6114
lwrist 37.4361
lhand -15.2383 -14.0134
lfingers 7.12502
lthumb 10.9349 15.6819
rfemur -11.3578 0.970399 26.1275
rtibia 17.7529
rfoot -18.1353 8.66066
rtoes -14.9061
lfemur -12.8522 -2.32056 -10.9091
ltibia 21.3592
lfoot -16.7239 6.93623
ltoes -30.5143
